<svg xmlns="http://www.w3.org/2000/svg" width="208" height="40" viewBox="0 0 208 40">
    <path fill="#FFF" fill-rule="evenodd" d="M68.284 30.143c-1.553 2.336-4.04 3.426-6.8 3.426-5.792 0-10.572-4.944-10.572-10.704 0-5.8 4.663-10.742 10.532-10.742a8.65 8.65 0 0 1 6.84 3.385V9.904h-2.72V5.466h7.463V28.82h2.682v4.436h-7.425v-3.113zm.118-7.356c0-3.426-2.837-6.227-6.22-6.227-3.536 0-6.335 2.84-6.335 6.382 0 3.425 2.799 6.266 6.258 6.266 3.537 0 6.297-2.919 6.297-6.42zm41.383 6.033h2.682v4.437h-10.145V28.82h2.72V16.91h-2.682v-4.437h7.425V28.82zm0-18.333h-4.742V5.466h4.742v5.021zm3.204 12.3c0-6.072 4.936-10.937 10.96-10.937 5.986 0 10.806 4.982 10.806 10.898 0 6.072-4.82 11.054-10.922 11.054-6.063 0-10.844-5.022-10.844-11.015zm17.1.078c0-3.386-2.681-6.345-6.14-6.345-3.42 0-6.297 2.763-6.297 6.228 0 3.425 2.644 6.382 6.181 6.382a6.257 6.257 0 0 0 6.257-6.265zm17.904-6.423h-2.138v-3.969h10.222v4.437h-2.525l-5.716 5.527 6.064 6.383h3.266v4.437h-11.31V28.82h1.748l-4.936-5.45v5.45h1.866v4.437h-9.328V28.82h2.72V9.904h-2.72V5.466h7.462v16.308l5.325-5.332zm26.832 14.011c-1.516 2.298-3.965 3.349-6.687 3.349-5.947 0-10.65-4.944-10.65-10.822 0-6.032 4.82-11.052 10.884-11.052 2.684 0 5.013 1.246 6.453 3.502v-2.957h7.425v4.437h-2.605v11.91h2.605v4.437h-7.425v-2.804zm.076-7.705c0-3.425-2.835-6.188-6.256-6.188-3.539 0-6.257 2.919-6.257 6.42 0 3.387 2.836 6.19 6.18 6.19 3.573 0 6.333-2.881 6.333-6.422zm11.665-5.838h-2.68v-4.437h7.424v2.957c1.241-2.296 3.574-3.424 6.14-3.424 2.253 0 4.469.933 5.984 2.568 1.712 1.908 1.75 3.737 1.75 6.11v8.136h2.681v4.436H197.76V28.82h2.684v-6.733c0-1.285 0-2.608-.817-3.737-.854-1.13-2.256-1.675-3.655-1.675-1.436 0-2.915.585-3.77 1.753-.892 1.168-.892 2.957-.892 4.36v6.032h2.68v4.436h-10.104V28.82h2.68V16.91zM93.335 30.453c-1.516 2.298-3.966 3.349-6.687 3.349-5.947 0-10.65-4.944-10.65-10.822 0-6.032 4.82-11.052 10.884-11.052 2.684 0 5.013 1.245 6.453 3.502v-2.957h7.425v4.437h-2.605v11.91h2.605v4.437h-7.425v-2.804zm.076-7.705c0-3.425-2.836-6.188-6.257-6.188-3.538 0-6.257 2.919-6.257 6.42 0 3.387 2.836 6.19 6.181 6.19 3.573 0 6.333-2.881 6.333-6.422zM37.578 9.708a1.746 1.746 0 0 1 0 3.49 1.746 1.746 0 0 1 0-3.49zm0 .253a1.491 1.491 0 1 0 1.49 1.492c0-.824-.667-1.492-1.49-1.492zm-.213 1.676v.608h-.335V10.66h.461c.215 0 .374.04.478.118.103.078.154.197.154.357a.421.421 0 0 1-.077.249.509.509 0 0 1-.217.17c.238.357.393.587.465.691h-.372l-.378-.608h-.179zm0-.273h.109a.414.414 0 0 0 .235-.053c.05-.036.075-.091.075-.167 0-.075-.025-.129-.077-.16a.467.467 0 0 0-.24-.048h-.102v.428zm6.672-7.394c.658 0 1.191.535 1.191 1.193v33.409c0 .659-.533 1.193-1.19 1.193H32.98V35.1h7.576V8.634H32.98V3.97h11.057zM4.657 8.634V35.1h7.591v4.664H1.191A1.192 1.192 0 0 1 0 38.572V5.163C0 4.505.533 3.97 1.191 3.97h11.057v4.664h-7.59zm6.775 14.359c0-6.24 5.071-11.238 11.26-11.238 6.152 0 11.104 5.119 11.104 11.197 0 6.239-4.952 11.358-11.222 11.358-6.23 0-11.142-5.16-11.142-11.317zm17.57.08c0-3.48-2.755-6.52-6.31-6.52-3.513 0-6.469 2.84-6.469 6.399 0 3.52 2.717 6.558 6.351 6.558a6.429 6.429 0 0 0 6.429-6.438zm-6.388-4.96a4.916 4.916 0 0 1 4.912 4.92c0 2.716-2.199 4.918-4.912 4.918a4.916 4.916 0 0 1-4.912-4.919c0-2.716 2.2-4.919 4.912-4.919zm0 .877a4.044 4.044 0 0 0-4.036 4.042 4.044 4.044 0 0 0 4.036 4.042 4.044 4.044 0 0 0 4.037-4.042 4.044 4.044 0 0 0-4.037-4.042zM10.884 1.971c0 .25-.203.453-.454.453H4.081a.453.453 0 0 1-.453-.453V.453c0-.25.203-.453.453-.453h6.35c.25 0 .453.203.453.453V1.97z"/>
</svg>
