<svg xmlns="http://www.w3.org/2000/svg" width="180" height="33" viewBox="0 0 180 33">
    <path fill="#FFF" fill-rule="nonzero" d="M69.285 0v21.763h2.503v4.134H64.86v-2.901c-1.45 2.175-3.772 3.192-6.348 3.192-5.404 0-9.866-4.608-9.866-9.975C48.646 10.809 53 6.2 58.476 6.2c2.466 0 4.861 1.16 6.384 3.157V4.135h-2.539V0h6.964zM59.092 22.125c3.301 0 5.877-2.72 5.877-5.984 0-3.192-2.648-5.804-5.803-5.804-3.301 0-5.913 2.647-5.913 5.948 0 3.192 2.612 5.84 5.84 5.84zm22.28-15.597v15.235h2.503v4.134H74.41v-4.134h2.539v-11.1h-2.504V6.528h6.929zm-4.424-1.85V0h4.425v4.678h-4.425zm19.497 1.27c5.586 0 10.082 4.643 10.082 10.156 0 5.659-4.496 10.302-10.191 10.302-5.659 0-10.12-4.68-10.12-10.265 0-5.66 4.607-10.193 10.229-10.193zm-.109 16.105a5.837 5.837 0 0 0 5.84-5.84c0-3.155-2.504-5.913-5.731-5.913-3.192 0-5.876 2.575-5.876 5.804 0 3.192 2.466 5.949 5.767 5.949zm24.583-6.24l5.658 5.95h3.047v4.135h-10.555v-4.135h1.632l-4.606-5.079v5.079h1.741v4.135h-8.705v-4.135h2.538V4.135h-2.538V0h6.964v15.197l4.968-4.969h-1.994v-3.7h9.539v4.135h-2.357l-5.332 5.15zm27.033-6.527V6.528h6.928v4.135h-2.43v11.1h2.43v4.134h-6.928v-2.611c-1.414 2.14-3.699 3.12-6.238 3.12-5.55 0-9.94-4.608-9.94-10.084 0-5.622 4.499-10.302 10.158-10.302 2.502 0 4.678 1.16 6.02 3.266zm-5.839 12.802c3.336 0 5.911-2.683 5.911-5.984 0-3.192-2.647-5.767-5.839-5.767-3.3 0-5.84 2.72-5.84 5.985 0 3.155 2.648 5.766 5.768 5.766zm35.385-.325H180v4.135h-9.43v-4.135h2.503v-6.276c0-1.196 0-2.429-.762-3.482-.798-1.052-2.105-1.559-3.41-1.559-1.341 0-2.72.544-3.519 1.632-.833 1.088-.833 2.756-.833 4.063v5.622h2.502v4.135h-9.43v-4.135h2.503v-11.1h-2.503V6.528h6.928v2.757c1.16-2.14 3.336-3.191 5.731-3.191 2.103 0 4.171.87 5.585 2.393 1.597 1.777 1.633 3.482 1.633 5.695v7.58zM0 32.823V.461h7.807v2.77H3.588v26.822h4.219v2.77H0zM19.433 5.948c5.585 0 10.084 4.643 10.084 10.156 0 5.659-4.499 10.302-10.195 10.302-5.659 0-10.117-4.68-10.117-10.265 0-5.659 4.606-10.193 10.228-10.193zm-.11 16.105c3.23 0 5.84-2.611 5.84-5.84 0-3.155-2.503-5.913-5.73-5.913-3.194 0-5.877 2.576-5.877 5.804 0 3.192 2.465 5.949 5.766 5.949zM30.914 3.231V.461h7.806v32.362h-7.806v-2.77h4.218V3.231h-4.218z"/>
</svg>
